<?xml version="1.0" encoding="UTF-8"?>
<svg class="switchless-diagram__svg" viewBox="0 0 968 490" role="img" aria-label="Switched intent diagram with ToR switches" xmlns="http://www.w3.org/2000/svg"><defs><style>:root { --bg-dark: #000000; --card-bg: #111111; --text-primary: #ffffff; --text-secondary: #a1a1aa; --accent-blue: #0078d4; --accent-purple: #8b5cf6; --success: #10b981; --glass-border: rgba(255, 255, 255, 0.1); }</style></defs><rect fill="#000000" x="0" y="0" width="968" height="490"/><rect x="30" y="55" width="908" height="405" rx="18" fill="rgba(255,255,255,0.02)" stroke="rgba(0,120,212,0.35)" stroke-dasharray="6 4"/><text x="484" y="42" text-anchor="middle" font-size="13" fill="var(--text-secondary)">Storage Switched connectivity — Switchless=false, AutoIP: True — Total nodes: 3</text><rect x="314" y="100" width="140" height="50" rx="10" fill="rgba(59,130,246,0.15)" stroke="rgba(59,130,246,0.6)" stroke-width="2"/><text x="384" y="130" text-anchor="middle" font-size="13" fill="var(--text-primary)" font-weight="600">ToR Switch 1</text><rect x="514" y="100" width="140" height="50" rx="10" fill="rgba(59,130,246,0.15)" stroke="rgba(59,130,246,0.6)" stroke-width="2"/><text x="584" y="130" text-anchor="middle" font-size="13" fill="var(--text-primary)" font-weight="600">ToR Switch 2</text><line x1="454" y1="119" x2="514" y2="119" stroke="rgba(59,130,246,0.8)" stroke-width="2"/><line x1="454" y1="131" x2="514" y2="131" stroke="rgba(59,130,246,0.8)" stroke-width="2"/><text x="484" y="111" text-anchor="middle" font-size="10" fill="var(--text-secondary)">MLAG</text><rect x="50" y="230" width="414" height="180" rx="16" fill="rgba(255,255,255,0.03)" stroke="var(--glass-border)"/><text x="257" y="260" text-anchor="middle" font-size="15" fill="var(--text-primary)" font-weight="700">tpdemos-00-n01</text><rect x="54" y="342" width="134" height="60" rx="10" fill="rgba(0,120,212,0.07)" stroke="rgba(0,120,212,0.45)" stroke-dasharray="5 3"/><text x="121" y="338" text-anchor="middle" font-size="10" fill="var(--text-secondary)">Management</text><rect x="190" y="342" width="134" height="60" rx="10" fill="rgba(16,185,129,0.07)" stroke="rgba(16,185,129,0.45)" stroke-dasharray="5 3"/><text x="257" y="338" text-anchor="middle" font-size="10" fill="var(--text-secondary)">Compute</text><rect x="326" y="342" width="134" height="60" rx="10" fill="rgba(139,92,246,0.07)" stroke="rgba(139,92,246,0.45)" stroke-dasharray="5 3"/><text x="393" y="338" text-anchor="middle" font-size="10" fill="var(--text-secondary)">Storage</text><rect x="62" y="354" width="54" height="36" rx="6" fill="rgba(0,120,212,0.20)" stroke="rgba(0,120,212,0.55)"/><text x="89" y="370" text-anchor="middle" font-size="9" fill="var(--text-primary)" font-weight="600">Embedded Nic 1</text><rect x="126" y="354" width="54" height="36" rx="6" fill="rgba(0,120,212,0.20)" stroke="rgba(0,120,212,0.55)"/><text x="153" y="382" text-anchor="middle" font-size="9" fill="var(--text-primary)" font-weight="600">Embedded Nic 2</text><rect x="198" y="354" width="54" height="36" rx="6" fill="rgba(16,185,129,0.22)" stroke="rgba(16,185,129,0.7)"/><text x="225" y="370" text-anchor="middle" font-size="9" fill="var(--text-primary)" font-weight="600">Slot 3 Port 1</text><rect x="262" y="354" width="54" height="36" rx="6" fill="rgba(16,185,129,0.22)" stroke="rgba(16,185,129,0.7)"/><text x="289" y="382" text-anchor="middle" font-size="9" fill="var(--text-primary)" font-weight="600">Slot 3 Port 2</text><rect x="334" y="354" width="54" height="36" rx="6" fill="rgba(139,92,246,0.25)" stroke="rgba(139,92,246,0.65)"/><text x="361" y="370" text-anchor="middle" font-size="9" fill="var(--text-primary)" font-weight="600">Slot 6 Port 1</text><rect x="398" y="354" width="54" height="36" rx="6" fill="rgba(139,92,246,0.25)" stroke="rgba(139,92,246,0.65)"/><text x="425" y="382" text-anchor="middle" font-size="9" fill="var(--text-primary)" font-weight="600">Slot 6 Port 2</text><rect x="504" y="230" width="414" height="180" rx="16" fill="rgba(255,255,255,0.03)" stroke="var(--glass-border)"/><text x="711" y="260" text-anchor="middle" font-size="15" fill="var(--text-primary)" font-weight="700">tpdemos-00-n02</text><rect x="508" y="342" width="134" height="60" rx="10" fill="rgba(0,120,212,0.07)" stroke="rgba(0,120,212,0.45)" stroke-dasharray="5 3"/><text x="575" y="338" text-anchor="middle" font-size="10" fill="var(--text-secondary)">Management</text><rect x="644" y="342" width="134" height="60" rx="10" fill="rgba(16,185,129,0.07)" stroke="rgba(16,185,129,0.45)" stroke-dasharray="5 3"/><text x="711" y="338" text-anchor="middle" font-size="10" fill="var(--text-secondary)">Compute</text><rect x="780" y="342" width="134" height="60" rx="10" fill="rgba(139,92,246,0.07)" stroke="rgba(139,92,246,0.45)" stroke-dasharray="5 3"/><text x="847" y="338" text-anchor="middle" font-size="10" fill="var(--text-secondary)">Storage</text><rect x="516" y="354" width="54" height="36" rx="6" fill="rgba(0,120,212,0.20)" stroke="rgba(0,120,212,0.55)"/><text x="543" y="370" text-anchor="middle" font-size="9" fill="var(--text-primary)" font-weight="600">Embedded Nic 1</text><rect x="580" y="354" width="54" height="36" rx="6" fill="rgba(0,120,212,0.20)" stroke="rgba(0,120,212,0.55)"/><text x="607" y="382" text-anchor="middle" font-size="9" fill="var(--text-primary)" font-weight="600">Embedded Nic 2</text><rect x="652" y="354" width="54" height="36" rx="6" fill="rgba(16,185,129,0.22)" stroke="rgba(16,185,129,0.7)"/><text x="679" y="370" text-anchor="middle" font-size="9" fill="var(--text-primary)" font-weight="600">Slot 3 Port 1</text><rect x="716" y="354" width="54" height="36" rx="6" fill="rgba(16,185,129,0.22)" stroke="rgba(16,185,129,0.7)"/><text x="743" y="382" text-anchor="middle" font-size="9" fill="var(--text-primary)" font-weight="600">Slot 3 Port 2</text><rect x="788" y="354" width="54" height="36" rx="6" fill="rgba(139,92,246,0.25)" stroke="rgba(139,92,246,0.65)"/><text x="815" y="370" text-anchor="middle" font-size="9" fill="var(--text-primary)" font-weight="600">Slot 6 Port 1</text><rect x="852" y="354" width="54" height="36" rx="6" fill="rgba(139,92,246,0.25)" stroke="rgba(139,92,246,0.65)"/><text x="879" y="382" text-anchor="middle" font-size="9" fill="var(--text-primary)" font-weight="600">Slot 6 Port 2</text><line x1="89" y1="354" x2="384" y2="150" stroke="rgba(0,120,212,0.4)" stroke-width="1.5" stroke-dasharray="4 2"/><line x1="153" y1="354" x2="584" y2="150" stroke="rgba(0,120,212,0.4)" stroke-width="1.5" stroke-dasharray="4 2"/><line x1="225" y1="354" x2="384" y2="150" stroke="rgba(0,120,212,0.4)" stroke-width="1.5" stroke-dasharray="4 2"/><line x1="289" y1="354" x2="584" y2="150" stroke="rgba(0,120,212,0.4)" stroke-width="1.5" stroke-dasharray="4 2"/><line x1="361" y1="354" x2="384" y2="150" stroke="rgba(139,92,246,0.5)" stroke-width="1.5" stroke-dasharray="4 2"/><line x1="425" y1="354" x2="584" y2="150" stroke="rgba(139,92,246,0.5)" stroke-width="1.5" stroke-dasharray="4 2"/><line x1="543" y1="354" x2="384" y2="150" stroke="rgba(0,120,212,0.4)" stroke-width="1.5" stroke-dasharray="4 2"/><line x1="607" y1="354" x2="584" y2="150" stroke="rgba(0,120,212,0.4)" stroke-width="1.5" stroke-dasharray="4 2"/><line x1="679" y1="354" x2="384" y2="150" stroke="rgba(0,120,212,0.4)" stroke-width="1.5" stroke-dasharray="4 2"/><line x1="743" y1="354" x2="584" y2="150" stroke="rgba(0,120,212,0.4)" stroke-width="1.5" stroke-dasharray="4 2"/><line x1="815" y1="354" x2="384" y2="150" stroke="rgba(139,92,246,0.5)" stroke-width="1.5" stroke-dasharray="4 2"/><line x1="879" y1="354" x2="584" y2="150" stroke="rgba(139,92,246,0.5)" stroke-width="1.5" stroke-dasharray="4 2"/><rect x="738" y="430" width="180" height="26" rx="13" fill="rgba(255,255,255,0.05)" stroke="var(--glass-border)"/><text x="828" y="447" text-anchor="middle" font-size="12" fill="var(--text-secondary)">+1 more node</text></svg>