<svg xmlns="http://www.w3.org/2000/svg" viewBox="0 0 720 400" font-family="Segoe UI, Arial, sans-serif">
  <rect width="720" height="400" fill="#f8fafc" rx="8"/>
  <text x="360" y="28" text-anchor="middle" font-size="16" font-weight="700" fill="#1e293b">IaC Decision Framework for Hyper-V</text>

  <!-- Start -->
  <rect x="260" y="48" width="200" height="36" rx="18" fill="#1e293b"/>
  <text x="360" y="71" text-anchor="middle" font-size="11" font-weight="600" fill="#fff">What tools does your team use?</text>

  <line x1="290" y1="84" x2="140" y2="115" stroke="#64748b" stroke-width="1.5"/>
  <line x1="360" y1="84" x2="360" y2="115" stroke="#64748b" stroke-width="1.5"/>
  <line x1="430" y1="84" x2="580" y2="115" stroke="#64748b" stroke-width="1.5"/>

  <text x="200" y="102" text-anchor="middle" font-size="10" font-weight="600" fill="#64748b">PowerShell only</text>
  <text x="360" y="102" text-anchor="middle" font-size="10" font-weight="600" fill="#64748b">Ansible</text>
  <text x="520" y="102" text-anchor="middle" font-size="10" font-weight="600" fill="#64748b">Terraform</text>

  <!-- PowerShell path -->
  <rect x="40" y="115" width="200" height="50" rx="5" fill="#fef9c3" stroke="#facc15" stroke-width="1.5"/>
  <text x="140" y="137" text-anchor="middle" font-size="11" font-weight="700" fill="#854d0e">PowerShell + DSC v3</text>
  <text x="140" y="153" text-anchor="middle" font-size="9" fill="#64748b">Post 19 patterns — native, free, 100%</text>

  <line x1="140" y1="165" x2="140" y2="190" stroke="#64748b" stroke-width="1"/>
  <rect x="40" y="190" width="200" height="36" rx="18" fill="#475569"/>
  <text x="140" y="213" text-anchor="middle" font-size="10" font-weight="600" fill="#fff">Need multi-platform?</text>

  <line x1="90" y1="226" x2="70" y2="255" stroke="#64748b" stroke-width="1"/>
  <line x1="190" y1="226" x2="210" y2="255" stroke="#64748b" stroke-width="1"/>
  <text x="70" y="248" text-anchor="middle" font-size="9" font-weight="600" fill="#16a34a">No</text>
  <text x="210" y="248" text-anchor="middle" font-size="9" font-weight="600" fill="#64748b">Yes</text>

  <rect x="15" y="255" width="110" height="40" rx="5" fill="#fef9c3" stroke="#facc15" stroke-width="1.5"/>
  <text x="70" y="278" text-anchor="middle" font-size="10" font-weight="600" fill="#854d0e">Stay with PS</text>
  <text x="70" y="290" text-anchor="middle" font-size="9" fill="#64748b">You're done!</text>

  <rect x="155" y="255" width="110" height="40" rx="5" fill="#fef2f2" stroke="#dc2626" stroke-width="1.5"/>
  <text x="210" y="278" text-anchor="middle" font-size="10" font-weight="600" fill="#991b1b">Add Ansible</text>
  <text x="210" y="290" text-anchor="middle" font-size="9" fill="#64748b">Cross-OS config</text>

  <!-- Ansible path -->
  <rect x="285" y="115" width="150" height="50" rx="5" fill="#fef2f2" stroke="#dc2626" stroke-width="1.5"/>
  <text x="360" y="137" text-anchor="middle" font-size="11" font-weight="700" fill="#991b1b">Ansible</text>
  <text x="360" y="153" text-anchor="middle" font-size="9" fill="#64748b">microsoft.hyperv + dsc3</text>

  <line x1="360" y1="165" x2="360" y2="190" stroke="#64748b" stroke-width="1"/>
  <rect x="275" y="190" width="170" height="36" rx="18" fill="#475569"/>
  <text x="360" y="213" text-anchor="middle" font-size="10" font-weight="600" fill="#fff">Need VM provisioning?</text>

  <line x1="310" y1="226" x2="290" y2="255" stroke="#64748b" stroke-width="1"/>
  <line x1="410" y1="226" x2="430" y2="255" stroke="#64748b" stroke-width="1"/>
  <text x="290" y="248" text-anchor="middle" font-size="9" font-weight="600" fill="#16a34a">No</text>
  <text x="430" y="248" text-anchor="middle" font-size="9" font-weight="600" fill="#64748b">Yes</text>

  <rect x="240" y="255" width="100" height="40" rx="5" fill="#fef2f2" stroke="#dc2626" stroke-width="1.5"/>
  <text x="290" y="278" text-anchor="middle" font-size="10" font-weight="600" fill="#991b1b">Ansible only</text>
  <text x="290" y="290" text-anchor="middle" font-size="9" fill="#64748b">Config mgmt</text>

  <rect x="380" y="255" width="100" height="40" rx="5" fill="#eff6ff" stroke="#2563eb" stroke-width="1.5"/>
  <text x="430" y="278" text-anchor="middle" font-size="10" font-weight="600" fill="#1e40af">TF + Ansible</text>
  <text x="430" y="290" text-anchor="middle" font-size="9" fill="#64748b">Full IaC stack</text>

  <!-- Terraform path -->
  <rect x="505" y="115" width="175" height="50" rx="5" fill="#faf5ff" stroke="#7c3aed" stroke-width="1.5"/>
  <text x="592" y="137" text-anchor="middle" font-size="11" font-weight="700" fill="#6b21a8">Terraform</text>
  <text x="592" y="153" text-anchor="middle" font-size="9" fill="#64748b">taliesins/hyperv provider</text>

  <line x1="592" y1="165" x2="592" y2="190" stroke="#64748b" stroke-width="1"/>
  <rect x="505" y="190" width="175" height="36" rx="18" fill="#475569"/>
  <text x="592" y="213" text-anchor="middle" font-size="10" font-weight="600" fill="#fff">Need config management?</text>

  <line x1="545" y1="226" x2="530" y2="255" stroke="#64748b" stroke-width="1"/>
  <line x1="640" y1="226" x2="655" y2="255" stroke="#64748b" stroke-width="1"/>
  <text x="530" y="248" text-anchor="middle" font-size="9" font-weight="600" fill="#64748b">PS/DSC only</text>
  <text x="655" y="248" text-anchor="middle" font-size="9" font-weight="600" fill="#64748b">Full stack</text>

  <rect x="480" y="255" width="110" height="40" rx="5" fill="#faf5ff" stroke="#7c3aed" stroke-width="1.5"/>
  <text x="535" y="278" text-anchor="middle" font-size="10" font-weight="600" fill="#6b21a8">TF + PS/DSC</text>
  <text x="535" y="290" text-anchor="middle" font-size="9" fill="#64748b">Provision + config</text>

  <rect x="600" y="255" width="110" height="40" rx="5" fill="#eff6ff" stroke="#2563eb" stroke-width="1.5"/>
  <text x="655" y="278" text-anchor="middle" font-size="10" font-weight="600" fill="#1e40af">TF + Ansible</text>
  <text x="655" y="290" text-anchor="middle" font-size="9" fill="#64748b">Full IaC stack</text>

  <!-- Bottom summary -->
  <rect x="20" y="315" width="680" height="68" rx="6" fill="#f1f5f9" stroke="#cbd5e1"/>
  <text x="360" y="337" text-anchor="middle" font-size="11" font-weight="700" fill="#1e293b">The Bottom Line</text>
  <text x="360" y="357" text-anchor="middle" font-size="10" fill="#1e293b">PowerShell + DSC v3 covers 100% of Hyper-V. Add tools only when they solve a problem you have.</text>
  <text x="360" y="375" text-anchor="middle" font-size="10" font-style="italic" fill="#475569">Don't add tools for the sake of adding tools.</text>
</svg>
